<svg id="Шар_1" data-name="Шар 1" xmlns="http://www.w3.org/2000/svg" xmlns:xlink="http://www.w3.org/1999/xlink" viewBox="0 0 228.77 115.39"><defs><style>.cls-1,.cls-3{fill:#007bff;}.cls-1{stroke-miterlimit:10;stroke-width:2px;stroke:url(#Безымянный_градиент_6);}.cls-2{fill:#fff;}</style><linearGradient id="Безымянный_градиент_6" x1="45.24" y1="-11.45" x2="183.53" y2="126.83" gradientUnits="userSpaceOnUse"><stop offset="0" stop-color="aqua"/><stop offset="1" stop-color="#1b1464"/></linearGradient></defs><title>doit</title><rect class="cls-1" x="1" y="1" width="226.77" height="113.39" rx="56.69" ry="56.69"/><circle class="cls-2" cx="170.54" cy="57.69" r="56.15"/><path class="cls-2" d="M197.63,122.48a4.11,4.11,0,0,1,.45-1.86,5.47,5.47,0,0,1,1.2-1.59,6.29,6.29,0,0,1,1.68-1.11,4.42,4.42,0,0,1,1.83-.42h4.8a19.8,19.8,0,0,1,8.16,1.56,17,17,0,0,1,5.79,4.14A17.62,17.62,0,0,1,225,129a19.47,19.47,0,0,1,1.17,6.66,19.71,19.71,0,0,1-1.11,6.54,16.16,16.16,0,0,1-3.36,5.64,17.15,17.15,0,0,1-5.58,4,18.45,18.45,0,0,1-7.77,1.53h-5.58A5.2,5.2,0,0,1,199,152a4.79,4.79,0,0,1-1.41-3.63Zm10.8,20.94a7.76,7.76,0,0,0,3.45-.72,8,8,0,0,0,2.49-1.86,7.62,7.62,0,0,0,1.53-2.61,9.18,9.18,0,0,0,.51-3,8.53,8.53,0,0,0-.48-2.82,6.72,6.72,0,0,0-1.47-2.43,7.48,7.48,0,0,0-2.52-1.71,9,9,0,0,0-3.57-.66h-.84v15.84Z" transform="translate(-165.4 -77.36)"/><path class="cls-2" d="M229,135.32a17.93,17.93,0,0,1,1.44-7.14,18.73,18.73,0,0,1,3.9-5.85,18.12,18.12,0,0,1,5.82-3.93,18.42,18.42,0,0,1,14.28,0,18.29,18.29,0,0,1,9.78,9.78,18.42,18.42,0,0,1,0,14.28,18.12,18.12,0,0,1-3.93,5.82,18.73,18.73,0,0,1-5.85,3.9,18.42,18.42,0,0,1-14.28,0,18.08,18.08,0,0,1-9.72-9.72A17.93,17.93,0,0,1,229,135.32Zm10.08.12a8.28,8.28,0,0,0,.63,3.24,8.21,8.21,0,0,0,4.41,4.41,8.28,8.28,0,0,0,3.24.63,8.5,8.5,0,0,0,3.27-.63,7.76,7.76,0,0,0,2.64-1.77,8.87,8.87,0,0,0,1.77-2.64,8,8,0,0,0,.66-3.24,8.17,8.17,0,0,0-.66-3.27,8.21,8.21,0,0,0-4.41-4.41,8.17,8.17,0,0,0-3.27-.66,8,8,0,0,0-3.24.66,8.87,8.87,0,0,0-2.64,1.77,7.76,7.76,0,0,0-1.77,2.64A8.5,8.5,0,0,0,239,135.44Z" transform="translate(-165.4 -77.36)"/><path class="cls-3" d="M327,148.4a4.56,4.56,0,0,1-1.47,3.66,5.13,5.13,0,0,1-3.45,1.26,5.22,5.22,0,0,1-3.51-1.26,4.56,4.56,0,0,1-1.47-3.66V122.48a4.56,4.56,0,0,1,1.47-3.66,5.22,5.22,0,0,1,3.51-1.26,5.13,5.13,0,0,1,3.45,1.26,4.56,4.56,0,0,1,1.47,3.66Z" transform="translate(-165.4 -77.36)"/><path class="cls-3" d="M348.45,148.4a4.56,4.56,0,0,1-1.47,3.66,5.22,5.22,0,0,1-3.51,1.26,5.13,5.13,0,0,1-3.45-1.26,4.56,4.56,0,0,1-1.47-3.66V127.46h-3.48a4.67,4.67,0,0,1-3.66-1.47,5.33,5.33,0,0,1,0-7,4.67,4.67,0,0,1,3.66-1.47h16.74a4.67,4.67,0,0,1,3.66,1.47,5.33,5.33,0,0,1,0,7,4.67,4.67,0,0,1-3.66,1.47h-3.36Z" transform="translate(-165.4 -77.36)"/></svg>